<svg width="32" height="33" viewBox="0 0 32 33" fill="none" xmlns="http://www.w3.org/2000/svg">
<path fill-rule="evenodd" clip-rule="evenodd" d="M5.81267 7.24751C5.81534 7.24751 5.74867 7.31684 5.66467 7.39951C5.342 7.71284 4.674 8.36484 4.66727 9.72884C4.65667 11.6368 5.91134 15.1795 11.9527 21.2195C17.966 27.2302 21.5033 28.4995 23.4153 28.4995H23.4433C24.8073 28.4928 25.458 27.8235 25.7727 27.5022C25.8687 27.4035 25.946 27.3315 26.0007 27.2862C27.3287 25.9502 28.0087 24.9555 28.0021 24.3182C27.9927 23.6675 27.1833 22.8982 26.0647 21.8342C25.7087 21.4955 25.322 21.1275 24.914 20.7195C23.8567 19.6648 23.3327 19.8448 22.1807 20.2502C20.5873 20.8088 18.4007 21.5688 15.0033 18.1702C11.6007 14.7702 12.362 12.5862 12.9193 10.9928C13.322 9.84084 13.506 9.31551 12.4473 8.25684C12.0327 7.84351 11.6607 7.45151 11.318 7.09151C10.2607 5.97951 9.498 5.17551 8.85134 5.16617H8.84067C8.202 5.16617 7.21 5.84884 5.806 7.25284C5.81 7.24884 5.81134 7.24751 5.81267 7.24751ZM23.4167 30.4995C20.094 30.4995 15.762 27.8542 10.5393 22.6342C5.29667 17.3928 2.64734 13.0475 2.66723 9.71817C2.67934 7.51817 3.83267 6.39151 4.266 5.96884C4.28867 5.94084 4.366 5.86484 4.39267 5.83817C6.30467 3.92484 7.594 3.15151 8.87667 3.16597C10.366 3.18617 11.426 4.30084 12.7673 5.71284C13.0993 6.06218 13.4593 6.44217 13.8607 6.84218C15.8073 8.78884 15.2527 10.3768 14.8073 11.6515C14.322 13.0422 13.902 14.2422 16.4167 16.7568C18.934 19.2715 20.134 18.8515 21.5193 18.3622C22.7953 17.9168 24.3793 17.3595 26.3287 19.3062C26.7233 19.7008 27.098 20.0568 27.4433 20.3862C28.862 21.7342 29.982 22.7995 30.0009 24.2928C30.0167 25.5662 29.2433 26.8635 27.334 28.7742L26.4887 28.2008L27.2033 28.8995C26.7807 29.3328 25.6553 30.4875 23.454 30.4995H23.4167Z" fill="white"/>
</svg>
