<svg width="48" height="48" viewBox="0 0 48 48" fill="none" xmlns="http://www.w3.org/2000/svg">
<rect x="0.659722" y="0.654351" width="46.1806" height="46.1806" rx="23.0903" stroke="white" stroke-width="1.31944"/>
<path d="M24.8802 12.7496C25.6826 12.7466 26.485 12.7546 27.2871 12.7738L27.5004 12.7815C27.7467 12.7903 27.9897 12.8013 28.2833 12.8145C29.4532 12.8695 30.2515 13.0542 30.9519 13.3258C31.6776 13.6051 32.2889 13.9833 32.9003 14.5947C33.4592 15.144 33.8918 15.8085 34.168 16.5419C34.4396 17.2424 34.6243 18.0417 34.6793 19.2116C34.6925 19.5041 34.7035 19.7482 34.7123 19.9945L34.7189 20.2078C34.7384 21.0096 34.7469 21.8116 34.7442 22.6136L34.7453 23.4338V24.8742C34.748 25.6766 34.7396 26.479 34.72 27.2811L34.7134 27.4944C34.7046 27.7407 34.6936 27.9837 34.6804 28.2773C34.6254 29.4472 34.4385 30.2455 34.168 30.9459C33.8928 31.6801 33.46 32.3451 32.9003 32.8943C32.3504 33.4532 31.6856 33.8858 30.9519 34.162C30.2515 34.4336 29.4532 34.6183 28.2833 34.6733C27.9897 34.6865 27.7467 34.6975 27.5004 34.7063L27.2871 34.7129C26.485 34.7324 25.6826 34.7409 24.8802 34.7382L24.06 34.7393H22.6207C21.8183 34.742 21.0159 34.7336 20.2138 34.714L20.0005 34.7074C19.7395 34.6979 19.4785 34.6869 19.2176 34.6744C18.0477 34.6194 17.2494 34.4325 16.5479 34.162C15.8142 33.8864 15.1496 33.4537 14.6007 32.8943C14.041 32.3448 13.608 31.6799 13.3318 30.9459C13.0602 30.2455 12.8755 29.4472 12.8205 28.2773C12.8083 28.0164 12.7973 27.7554 12.7875 27.4944L12.782 27.2811C12.7618 26.479 12.7526 25.6766 12.7545 24.8742V22.6136C12.7515 21.8116 12.7595 21.0096 12.7787 20.2078L12.7864 19.9945C12.7952 19.7482 12.8062 19.5041 12.8194 19.2116C12.8744 18.0406 13.0591 17.2435 13.3307 16.5419C13.6071 15.8081 14.041 15.1438 14.6018 14.5958C15.1503 14.0358 15.8145 13.6024 16.5479 13.3258C17.2494 13.0542 18.0466 12.8695 19.2176 12.8145L20.0005 12.7815L20.2138 12.776C21.0156 12.7558 21.8176 12.7466 22.6196 12.7485L24.8802 12.7496ZM23.7499 18.2473C23.0215 18.237 22.2983 18.3716 21.6223 18.6432C20.9463 18.9149 20.3311 19.3181 19.8123 19.8296C19.2935 20.3411 18.8816 20.9506 18.6004 21.6226C18.3193 22.2947 18.1745 23.016 18.1745 23.7445C18.1745 24.473 18.3193 25.1942 18.6004 25.8663C18.8816 26.5383 19.2935 27.1478 19.8123 27.6593C20.3311 28.1708 20.9463 28.5741 21.6223 28.8457C22.2983 29.1173 23.0215 29.2519 23.7499 29.2416C25.208 29.2416 26.6063 28.6624 27.6374 27.6314C28.6684 26.6003 29.2476 25.202 29.2476 23.7439C29.2476 22.2858 28.6684 20.8875 27.6374 19.8565C26.6063 18.8254 25.208 18.2473 23.7499 18.2473ZM23.7499 20.4464C24.1881 20.4383 24.6235 20.5177 25.0306 20.6797C25.4378 20.8418 25.8086 21.0834 26.1214 21.3904C26.4341 21.6974 26.6826 22.0636 26.8522 22.4677C27.0218 22.8718 27.1092 23.3057 27.1093 23.7439C27.1094 24.1822 27.0221 24.616 26.8526 25.0202C26.6831 25.4243 26.4348 25.7906 26.1222 26.0977C25.8095 26.4048 25.4388 26.6466 25.0317 26.8088C24.6245 26.971 24.1892 27.0505 23.751 27.0425C22.8762 27.0425 22.0371 26.695 21.4185 26.0764C20.7999 25.4578 20.4524 24.6188 20.4524 23.7439C20.4524 22.8691 20.7999 22.0301 21.4185 21.4114C22.0371 20.7928 22.8762 20.4453 23.751 20.4453L23.7499 20.4464ZM29.5225 16.598C29.1678 16.6122 28.8323 16.7631 28.5863 17.0191C28.3404 17.2751 28.203 17.6163 28.203 17.9713C28.203 18.3263 28.3404 18.6676 28.5863 18.9236C28.8323 19.1796 29.1678 19.3305 29.5225 19.3447C29.887 19.3447 30.2366 19.1999 30.4943 18.9421C30.7521 18.6844 30.8969 18.3348 30.8969 17.9702C30.8969 17.6057 30.7521 17.2561 30.4943 16.9984C30.2366 16.7406 29.887 16.5958 29.5225 16.5958V16.598Z" fill="white"/>
</svg>
