<svg width="32" height="33" viewBox="0 0 32 33" fill="none" xmlns="http://www.w3.org/2000/svg">
<path fill-rule="evenodd" clip-rule="evenodd" d="M22.2119 3.16675C26.6519 3.16675 29.9999 6.78942 29.9999 11.5934V20.7507C29.9999 23.2094 29.1305 25.4307 27.5505 27.0067C26.1332 28.4187 24.2945 29.1667 22.2332 29.1667H9.09587C7.03854 29.1667 5.20121 28.4201 3.78254 27.0067C2.20254 25.4307 1.33321 23.2094 1.33321 20.7507V11.5934C1.33321 6.78942 4.68121 3.16675 9.12121 3.16675H22.2119ZM22.2119 5.16675H9.12121C5.76787 5.16675 3.33321 7.86942 3.33321 11.5934V20.7507C3.33321 22.6747 3.99454 24.3934 5.19454 25.5894C6.22921 26.6227 7.57987 27.1667 9.09987 27.1667H22.2119C22.2145 27.1641 22.2252 27.1667 22.2332 27.1667C23.7545 27.1667 25.1039 26.6227 26.1385 25.5894C27.3399 24.3934 27.9999 22.6747 27.9999 20.7507V11.5934C27.9999 7.86942 25.5652 5.16675 22.2119 5.16675ZM24.3132 11.3385C24.6612 11.7665 24.5959 12.3958 24.1679 12.7451L18.2425 17.5611C17.4932 18.1558 16.5972 18.4531 15.7025 18.4531C14.8105 18.4531 13.9212 18.1585 13.1772 17.5691L7.19721 12.7478C6.76654 12.4011 6.69987 11.7705 7.04521 11.3411C7.39321 10.9131 8.02254 10.8451 8.45187 11.1905L14.4265 16.0065C15.1772 16.6011 16.2345 16.6011 16.9905 16.0011L22.9052 11.1931C23.3345 10.8425 23.9639 10.9091 24.3132 11.3385Z" fill="white"/>
</svg>
