<svg width="298" height="88" viewBox="0 0 298 88" fill="none" xmlns="http://www.w3.org/2000/svg">
<path d="M283.665 13.5991L290.691 43.7985H276.696L283.637 13.5991H283.665ZM295.252 64.1392H298L284.798 6.31838H282.645L273.891 43.7985V44.0535L269.33 64.1392H272.078L276.016 46.4615H291.286L295.224 64.1392H295.252ZM248.14 6.2334H245.392L259.047 64.0542H261.115L274.77 6.2334H271.937L260.095 57.1985L248.168 6.2334H248.14ZM221.283 21.5881C221.283 13.0042 224.371 8.98138 230.887 8.98138C237.403 8.98138 240.491 12.7492 240.491 21.5881V48.7846C240.491 57.7084 237.148 61.4762 230.887 61.4762C224.626 61.4762 221.283 57.4534 221.283 48.7846V21.5881ZM218.62 48.7846C218.62 55.2154 220.263 58.8982 222.643 61.2213C225.051 63.5443 228.139 64.1392 230.887 64.1392C233.635 64.1392 236.808 63.5443 239.216 61.2213C241.624 58.8982 243.239 55.2154 243.239 48.7846V21.5881C243.239 11.6444 239.131 6.31838 230.887 6.31838C222.643 6.31838 218.62 11.7293 218.62 21.5881V48.7846ZM199.413 64.1392L209.356 18.1602V64.1392H212.104V6.31838H209.186L198.364 55.3004L187.458 6.31838H184.625V64.1392H187.288V18.1602L197.316 64.1392H199.384H199.413ZM147.569 13.5991L154.595 43.7985H140.6L147.541 13.5991H147.569ZM159.156 64.1392H161.904L148.703 6.31838H146.549L137.796 43.7985V44.0535L133.235 64.1392H135.983L139.92 46.4615H155.19L159.128 64.1392H159.156ZM103.545 48.7846C103.545 55.2154 105.188 58.8982 107.568 61.2213C109.976 63.5443 113.064 64.1392 115.897 64.1392C118.73 64.1392 121.733 63.5443 124.141 61.2213C126.549 58.8982 128.164 55.2154 128.164 48.7846V47.4247H125.416V48.7846C125.416 53.1473 124.651 56.3486 123.008 58.4733C121.364 60.4564 118.985 61.4762 115.897 61.4762C109.466 61.4762 106.293 57.6234 106.293 48.7846V21.5881C106.293 12.7492 109.636 8.98138 115.897 8.98138C122.158 8.98138 125.416 12.7492 125.416 21.5881V22.9479H128.164V21.5881C128.164 15.3272 126.52 11.3894 124.141 9.15135C121.733 6.91331 118.645 6.31838 115.897 6.31838C113.149 6.31838 109.976 6.91331 107.568 9.15135C105.16 11.3894 103.545 15.3272 103.545 21.5881V48.7846ZM97.2842 6.31838H94.6212V64.1392H97.2842V6.31838ZM88.3603 64.1392V6.31838H85.6123V55.8103L65.6965 6.31838H63.3735V64.1392H66.1215V14.619L86.1223 64.1392H88.3603ZM57.056 6.31838H54.393V64.1392H57.056V6.31838ZM49.6053 61.4762H31.9276V6.31838H29.1796V64.1392H49.6053V61.4762ZM0 48.7846C0 55.2154 1.64312 58.8982 4.02282 61.2213C6.43084 63.5443 9.51878 64.1392 12.3517 64.1392C15.1847 64.1392 18.1877 63.5443 20.5957 61.2213C23.0037 58.8982 24.6185 55.2154 24.6185 48.7846V47.4247H21.8705V48.7846C21.8705 53.1473 21.1056 56.3486 19.4625 58.4733C17.8194 60.4564 15.4397 61.4762 12.3517 61.4762C5.92091 61.4762 2.74798 57.6234 2.74798 48.7846V21.5881C2.74798 12.7492 6.09088 8.98138 12.3517 8.98138C18.6126 8.98138 21.8705 12.7492 21.8705 21.5881V22.9479H24.6185V21.5881C24.6185 15.3272 22.9754 11.3894 20.5957 9.15135C18.1877 6.91331 15.0997 6.31838 12.3517 6.31838C9.60377 6.31838 6.43084 6.91331 4.02282 9.15135C1.61479 11.3894 0 15.3272 0 21.5881L0 48.7846Z" fill="white"/>
<path fill-rule="evenodd" clip-rule="evenodd" d="M62.0987 0H59.1524L54.5063 5.07101H57.4526L62.0987 0Z" fill="white"/>
<path d="M225.703 66.0391H72.2691V87.9946H225.703V66.0391Z" fill="white"/>
<path fill-rule="evenodd" clip-rule="evenodd" d="M218.309 77.7369V77.2553L217.005 77.4253C216.297 77.5103 215.929 77.8502 215.929 78.3885C215.929 78.6434 216.014 78.8417 216.184 79.0117C216.382 79.1817 216.609 79.2667 216.892 79.2667C217.317 79.2667 217.629 79.125 217.912 78.8417C218.167 78.5585 218.309 78.1902 218.309 77.7652M220.377 80.6548H218.309V79.635H218.28C217.799 80.4282 217.09 80.8248 216.156 80.8248C215.476 80.8248 214.909 80.6265 214.541 80.2299C214.144 79.8333 213.946 79.3233 213.946 78.6718C213.946 77.2836 214.767 76.4904 216.382 76.2921L218.309 76.0371C218.309 75.2439 217.884 74.8756 217.034 74.8756C216.184 74.8756 215.391 75.1306 214.626 75.6405V73.9974C214.937 73.8274 215.362 73.6857 215.872 73.5724C216.411 73.4591 216.892 73.4024 217.317 73.4024C219.357 73.4024 220.348 74.4223 220.348 76.4337V80.6832L220.377 80.6548ZM213.039 80.3999C212.529 80.6832 211.821 80.8248 210.886 80.8248C209.781 80.8248 208.903 80.4849 208.252 79.8333C207.572 79.1817 207.232 78.3318 207.232 77.2836C207.232 76.0654 207.6 75.1306 208.337 74.4223C209.073 73.7141 210.036 73.3741 211.226 73.3741C212.076 73.3741 212.671 73.4874 213.039 73.7141V75.5838C212.586 75.2439 212.076 75.0739 211.51 75.0739C210.886 75.0739 210.376 75.2722 210.008 75.6405C209.64 76.0088 209.441 76.5187 209.441 77.1703C209.441 77.8219 209.611 78.3035 209.98 78.6434C210.348 79.0117 210.83 79.1817 211.425 79.1817C211.991 79.1817 212.501 79.0117 213.039 78.6718V80.4282V80.3999ZM205.22 78.2468C205.22 78.5584 205.277 78.7851 205.447 78.9551C205.589 79.0967 205.787 79.1817 206.014 79.1817C206.155 79.1817 206.269 79.1817 206.382 79.125C206.495 79.125 206.637 79.0684 206.75 79.0684V80.5982C206.467 80.6548 206.212 80.7398 205.9 80.7682C205.589 80.8248 205.305 80.8532 204.965 80.8532C204.682 80.8532 204.399 80.7965 204.172 80.7115C203.945 80.5982 203.719 80.4565 203.549 80.2866C203.407 80.0883 203.237 79.8616 203.152 79.6066C203.039 79.3517 203.011 79.0401 203.011 78.7284V73.5441H205.192V78.2468H205.22ZM204.172 72.4392C203.804 72.4392 203.492 72.3259 203.266 72.0993C203.039 71.8726 202.897 71.5893 202.897 71.2777C202.897 70.9661 203.011 70.6828 203.266 70.4562C203.492 70.2295 203.804 70.1445 204.172 70.1445C204.54 70.1445 204.852 70.2295 205.079 70.4562C205.305 70.6828 205.447 70.9378 205.447 71.2777C205.447 71.6177 205.305 71.8726 205.079 72.0993C204.852 72.3259 204.54 72.4392 204.172 72.4392ZM201.877 80.5698C201.537 80.7398 201.056 80.8248 200.404 80.8248C198.874 80.8248 198.081 80.0316 198.081 78.4168V75.1589H196.92V73.5441H198.081V72.0143L200.263 71.391V73.5441H201.849V75.1589H200.263V78.0202C200.263 78.7568 200.574 79.125 201.141 79.125C201.367 79.125 201.622 79.0401 201.849 78.9267V80.5415L201.877 80.5698ZM195.192 70.1729L193.01 72.4109H191.424L193.237 70.1729H195.192ZM193.775 77.7652V77.2836L192.472 77.4536C191.764 77.5386 191.395 77.8785 191.395 78.4168C191.395 78.6718 191.48 78.8701 191.65 79.0401C191.849 79.21 192.075 79.295 192.359 79.295C192.784 79.295 193.095 79.1534 193.379 78.8701C193.633 78.5868 193.775 78.2185 193.775 77.7935V77.7652ZM195.843 80.6548H193.775V79.635H193.747C193.265 80.4282 192.557 80.8248 191.622 80.8248C190.942 80.8248 190.376 80.6265 190.007 80.2299C189.611 79.8333 189.412 79.3233 189.412 78.6718C189.412 77.2836 190.234 76.4904 191.849 76.2921L193.775 76.0371C193.775 75.2439 193.35 74.8756 192.5 74.8756C191.65 74.8756 190.857 75.1306 190.092 75.6405V73.9974C190.404 73.8274 190.829 73.6857 191.339 73.5724C191.877 73.4591 192.359 73.4024 192.784 73.4024C194.823 73.4024 195.815 74.4223 195.815 76.4337V80.6832L195.843 80.6548ZM188.902 75.5272C188.647 75.3855 188.336 75.3005 187.968 75.3005C187.486 75.3005 187.118 75.4705 186.863 75.8388C186.579 76.1788 186.438 76.6604 186.438 77.2553V80.6548H184.256V73.5441H186.438V74.8756H186.466C186.834 73.9124 187.458 73.4308 188.336 73.4308C188.562 73.4308 188.761 73.4591 188.874 73.5158V75.5272H188.902ZM177.627 76.9153V77.4819C177.627 77.9635 177.769 78.3601 178.024 78.6718C178.279 78.9834 178.619 79.1534 179.044 79.1534C179.554 79.1534 179.922 78.9551 180.205 78.5584C180.489 78.1618 180.63 77.6236 180.63 76.9153C180.63 75.6688 180.149 75.0456 179.157 75.0456C178.704 75.0456 178.335 75.2156 178.052 75.5555C177.769 75.8955 177.627 76.3487 177.627 76.9153ZM177.684 79.8333H177.656V83.9128H175.474V73.5441H177.656V74.6206H177.684C178.222 73.7991 178.987 73.3741 179.979 73.3741C180.913 73.3741 181.622 73.6857 182.103 74.309C182.613 74.9606 182.868 75.8105 182.868 76.887C182.868 78.0768 182.557 79.0117 181.99 79.72C181.395 80.4565 180.63 80.7965 179.667 80.7965C178.817 80.7965 178.165 80.4565 177.712 79.805L177.684 79.8333ZM169.837 80.6548H167.655V76.6037C167.655 75.5555 167.259 75.0456 166.522 75.0456C166.154 75.0456 165.87 75.1872 165.644 75.5272C165.417 75.8388 165.304 76.2354 165.304 76.6887V80.6548H163.122V76.5754C163.122 75.5555 162.754 75.0739 161.989 75.0739C161.621 75.0739 161.309 75.2155 161.083 75.5272C160.856 75.8388 160.743 76.2354 160.743 76.7453V80.6832H158.561V73.5724H160.743V74.6773H160.771C160.998 74.2807 161.338 73.9974 161.734 73.7424C162.159 73.4874 162.612 73.3741 163.094 73.3741C164.114 73.3741 164.794 73.8274 165.162 74.7056C165.7 73.8274 166.494 73.3741 167.542 73.3741C169.1 73.3741 169.865 74.3373 169.865 76.2354V80.6548H169.837ZM155.218 76.3771C155.218 75.3572 154.793 74.8473 153.972 74.8473C153.632 74.8473 153.32 74.9889 153.065 75.2722C152.81 75.5838 152.64 75.9521 152.584 76.3771H155.19H155.218ZM157.258 77.7369H152.612C152.697 78.7568 153.349 79.295 154.567 79.295C155.36 79.295 156.04 79.125 156.635 78.7284V80.3149C155.983 80.6832 155.133 80.8532 154.085 80.8532C152.924 80.8532 152.046 80.5415 151.422 79.8899C150.799 79.2384 150.459 78.3601 150.459 77.2269C150.459 76.0938 150.799 75.1022 151.507 74.4223C152.187 73.7424 153.037 73.4024 154.029 73.4024C155.02 73.4024 155.87 73.7141 156.437 74.3373C157.003 74.9606 157.286 75.7821 157.286 76.8303V77.7652L157.258 77.7369ZM143.178 77.7935V77.3119L141.875 77.4819C141.167 77.5669 140.799 77.9069 140.799 78.4451C140.799 78.7001 140.884 78.8984 141.054 79.0684C141.252 79.2384 141.479 79.3233 141.762 79.3233C142.187 79.3233 142.498 79.1817 142.782 78.8984C143.037 78.6151 143.178 78.2468 143.178 77.8219V77.7935ZM145.246 80.6832H143.178V79.6633H143.15C142.668 80.4565 141.96 80.8532 141.025 80.8532C140.345 80.8532 139.779 80.6548 139.41 80.2582C139.014 79.8616 138.816 79.3517 138.816 78.7001C138.816 77.3119 139.637 76.5187 141.252 76.3204L143.178 76.0654C143.178 75.2722 142.753 74.9039 141.903 74.9039C141.054 74.9039 140.26 75.1589 139.495 75.6688V74.0257C139.807 73.8557 140.232 73.7141 140.742 73.6008C141.28 73.4874 141.762 73.4308 142.187 73.4308C144.227 73.4308 145.218 74.4507 145.218 76.4621V80.7115L145.246 80.6832ZM136.889 78.2752C136.889 78.5868 136.974 78.8134 137.116 78.9834C137.257 79.125 137.456 79.21 137.682 79.21C137.824 79.21 137.937 79.21 138.051 79.1534C138.192 79.1534 138.306 79.0967 138.419 79.0967V80.6265C138.136 80.6832 137.881 80.7682 137.569 80.7965C137.257 80.8532 136.974 80.8815 136.634 80.8815C136.351 80.8815 136.068 80.8248 135.841 80.7398C135.614 80.6265 135.388 80.4849 135.218 80.3149C135.048 80.1166 134.906 79.8899 134.821 79.635C134.708 79.38 134.679 79.0684 134.679 78.7568V73.5724H136.861V78.2752H136.889ZM135.841 72.4676C135.473 72.4676 135.161 72.3542 134.934 72.1276C134.679 71.901 134.566 71.6177 134.566 71.3061C134.566 70.9944 134.679 70.7111 134.934 70.4845C135.161 70.2579 135.473 70.1729 135.841 70.1729C136.209 70.1729 136.521 70.2579 136.747 70.4845C136.974 70.7111 137.116 70.9661 137.116 71.3061C137.116 71.646 136.974 71.901 136.747 72.1276C136.521 72.3542 136.209 72.4676 135.841 72.4676ZM130.77 77.2836V76.717C130.77 76.2637 130.628 75.8955 130.373 75.5555C130.09 75.2439 129.75 75.0739 129.325 75.0739C128.843 75.0739 128.447 75.2722 128.164 75.6405C127.88 76.0371 127.739 76.547 127.739 77.2553C127.739 77.8502 127.88 78.3035 128.135 78.6718C128.39 79.0117 128.759 79.1817 129.212 79.1817C129.665 79.1817 130.033 79.0117 130.317 78.6434C130.6 78.3035 130.742 77.8219 130.742 77.2553L130.77 77.2836ZM132.923 79.8899C132.923 81.2214 132.526 82.2413 131.79 82.9495C131.025 83.6578 129.92 84.0261 128.475 84.0261C127.512 84.0261 126.775 83.8844 126.209 83.6011V81.7597C126.945 82.1846 127.682 82.4113 128.419 82.4113C129.155 82.4113 129.722 82.213 130.147 81.8164C130.572 81.4197 130.77 80.8815 130.77 80.2299V79.6633C130.26 80.4565 129.523 80.8532 128.56 80.8532C127.654 80.8532 126.945 80.5415 126.407 79.8899C125.869 79.2384 125.614 78.3885 125.614 77.3119C125.614 76.0938 125.926 75.1589 126.52 74.4506C127.115 73.7424 127.88 73.4024 128.843 73.4024C129.722 73.4024 130.373 73.7424 130.798 74.394V73.5724H132.98V79.8616L132.923 79.8899ZM120.713 75.1022C120.203 75.1022 119.778 75.2722 119.495 75.6405C119.211 76.0088 119.07 76.5187 119.07 77.1703C119.07 78.5301 119.636 79.21 120.713 79.21C121.789 79.21 122.299 78.5018 122.299 77.1136C122.299 75.7821 121.761 75.1306 120.713 75.1306V75.1022ZM120.656 80.8815C119.466 80.8815 118.531 80.5415 117.88 79.8899C117.2 79.21 116.86 78.3318 116.86 77.1986C116.86 76.0654 117.228 75.1022 117.908 74.4506C118.616 73.7707 119.58 73.4591 120.77 73.4591C121.959 73.4591 122.866 73.7991 123.546 74.4506C124.226 75.1022 124.566 75.9804 124.566 77.0853C124.566 78.2751 124.226 79.21 123.518 79.8899C122.838 80.5699 121.874 80.9098 120.685 80.9098L120.656 80.8815ZM114.82 78.3035C114.82 78.6151 114.877 78.8417 115.047 79.0117C115.189 79.1534 115.387 79.2384 115.614 79.2384C115.755 79.2384 115.84 79.2384 115.982 79.1817C116.123 79.1817 116.237 79.125 116.35 79.125V80.6548C116.067 80.7115 115.812 80.7965 115.5 80.8248C115.189 80.8815 114.905 80.9098 114.565 80.9098C114.282 80.9098 113.999 80.8531 113.772 80.7682C113.545 80.6548 113.319 80.5132 113.149 80.3432C113.007 80.1449 112.837 79.9183 112.752 79.6633C112.639 79.4083 112.611 79.0967 112.611 78.7851V70.2012H114.792V78.3035H114.82ZM107.455 75.1306C106.945 75.1306 106.52 75.3005 106.236 75.6688C105.953 76.0371 105.811 76.547 105.811 77.1986C105.811 78.5584 106.378 79.2384 107.455 79.2384C108.531 79.2384 109.041 78.5301 109.041 77.142C109.041 75.8105 108.503 75.1589 107.455 75.1589V75.1306ZM107.398 80.9098C106.208 80.9098 105.273 80.5699 104.622 79.9183C103.942 79.2384 103.602 78.3601 103.602 77.2269C103.602 76.0938 103.97 75.1306 104.65 74.479C105.358 73.7991 106.321 73.4874 107.511 73.4874C108.701 73.4874 109.608 73.8274 110.288 74.479C110.967 75.1306 111.307 76.0088 111.307 77.1136C111.307 78.3035 110.967 79.2384 110.259 79.9183C109.579 80.5982 108.616 80.9381 107.426 80.9381L107.398 80.9098ZM102.582 80.4849C102.072 80.7682 101.364 80.9098 100.429 80.9098C99.324 80.9098 98.4457 80.5699 97.7942 79.9183C97.1142 79.2667 96.7743 78.4168 96.7743 77.3686C96.7743 76.1504 97.1426 75.2155 97.8791 74.5073C98.6157 73.7991 99.5789 73.4591 100.769 73.4591C101.619 73.4591 102.214 73.5724 102.582 73.7991V75.6688C102.129 75.3289 101.619 75.1589 101.052 75.1589C100.429 75.1589 99.9189 75.3572 99.5506 75.7255C99.1823 76.0938 98.984 76.6037 98.984 77.2553C98.984 77.9069 99.154 78.3885 99.5223 78.7284C99.8906 79.0967 100.372 79.2667 100.967 79.2667C101.534 79.2667 102.044 79.0967 102.582 78.7568V80.5132V80.4849ZM94.7629 78.3318C94.7629 78.6434 94.8479 78.8701 94.9895 79.0401C95.1312 79.1817 95.3295 79.2667 95.5561 79.2667C95.6978 79.2667 95.8111 79.2667 95.9244 79.21C96.066 79.21 96.1794 79.1534 96.2927 79.1534V80.6832C96.0094 80.7398 95.7544 80.8248 95.4428 80.8532C95.1312 80.9098 94.8479 80.9381 94.5079 80.9381C94.2246 80.9381 93.9413 80.8815 93.7147 80.7965C93.488 80.6832 93.2614 80.5415 93.0914 80.3715C92.9214 80.1732 92.7798 79.9466 92.6948 79.6916C92.6098 79.4367 92.5532 79.125 92.5532 78.8134V73.6291H94.7345V78.3318H94.7629ZM93.7147 72.5242C93.3464 72.5242 93.0348 72.4109 92.8081 72.1843C92.5532 71.9576 92.4398 71.6743 92.4398 71.3627C92.4398 71.0511 92.5532 70.7678 92.8081 70.5412C93.0348 70.3145 93.3464 70.2295 93.7147 70.2295C94.083 70.2295 94.3946 70.3145 94.6212 70.5412C94.8479 70.7678 94.9895 71.0228 94.9895 71.3627C94.9895 71.7027 94.8479 71.9576 94.6212 72.1843C94.3946 72.4109 94.083 72.5242 93.7147 72.5242ZM85.924 80.5698V78.7851C86.2923 79.0117 86.6606 79.1534 87.0005 79.2667C87.3688 79.38 87.7088 79.4367 88.0204 79.4367C88.417 79.4367 88.7287 79.38 88.927 79.2667C89.1536 79.1534 89.2669 78.9834 89.2669 78.7851C89.2669 78.6434 89.2386 78.5301 89.0969 78.4168C89.012 78.3318 88.8703 78.2468 88.7003 78.1618C88.5303 78.0768 88.3604 78.0202 88.1621 77.9635C87.9638 77.9069 87.7938 77.8502 87.5955 77.7652C87.3122 77.6519 87.0572 77.5386 86.8589 77.4253C86.6323 77.2836 86.4623 77.142 86.3206 77.0003C86.179 76.8303 86.0657 76.632 85.9807 76.4337C85.924 76.2071 85.8674 75.9521 85.8674 75.6688C85.8674 75.2722 85.9523 74.9322 86.1507 74.6489C86.3206 74.3373 86.5473 74.1107 86.8306 73.9407C87.1422 73.7424 87.4538 73.6291 87.8221 73.5441C88.1904 73.4591 88.587 73.4024 88.9836 73.4024C89.2952 73.4024 89.6352 73.4024 89.9468 73.4874C90.2868 73.5158 90.5984 73.6008 90.91 73.7141V75.4139C90.6267 75.2439 90.3151 75.1306 90.0035 75.0456C89.6919 74.9889 89.3802 74.9323 89.0686 74.9323C88.927 74.9323 88.7853 74.9323 88.672 74.9323C88.5303 74.9606 88.417 75.0172 88.332 75.0456C88.2187 75.1022 88.1621 75.1589 88.1054 75.2439C88.0487 75.3289 88.0204 75.4139 88.0204 75.5272C88.0204 75.6688 88.0771 75.7821 88.1621 75.8671C88.247 75.9521 88.3604 76.0371 88.502 76.1221C88.6437 76.1788 88.7853 76.2637 88.9553 76.2921C89.1253 76.3487 89.2952 76.4054 89.4652 76.4621C89.7485 76.5754 90.0318 76.6887 90.2585 76.802C90.4851 76.9153 90.6834 77.057 90.8534 77.2269C91.0234 77.3969 91.165 77.5952 91.25 77.7935C91.335 78.0202 91.3916 78.2752 91.3916 78.5868C91.3916 79.0117 91.3067 79.38 91.1083 79.6633C90.91 79.9749 90.6834 80.2016 90.3718 80.3999C90.0601 80.5982 89.7202 80.7398 89.3236 80.8248C88.927 80.9098 88.502 80.9665 88.0771 80.9665C87.2838 80.9665 86.5756 80.8532 85.8957 80.5982L85.924 80.5698ZM79.7481 77.0286V77.5952C79.7481 78.0768 79.8898 78.4735 80.1448 78.7851C80.3997 79.0967 80.7397 79.2667 81.1646 79.2667C81.6746 79.2667 82.0428 79.0684 82.3261 78.6718C82.6094 78.2752 82.7511 77.7369 82.7511 77.0286C82.7511 75.7821 82.2695 75.1589 81.2779 75.1589C80.8247 75.1589 80.4564 75.3289 80.1731 75.6688C79.8898 76.0088 79.7481 76.462 79.7481 77.0286ZM79.8048 79.9466V84.0261H77.6234V73.6574H79.8048V74.7339C80.3431 73.9124 81.108 73.4874 82.0995 73.4874C83.0344 73.4874 83.7426 73.7991 84.2242 74.4223C84.7342 75.0739 84.9891 75.9238 84.9891 77.0003C84.9891 78.1902 84.6775 79.125 84.1109 79.8333C83.516 80.5699 82.7511 80.9098 81.7879 80.9098C80.938 80.9098 80.2864 80.5699 79.8331 79.9183L79.8048 79.9466Z" fill="#A65400"/>
</svg>
