<svg width="49" height="48" viewBox="0 0 49 48" fill="none" xmlns="http://www.w3.org/2000/svg">
<rect x="1.34026" y="0.840386" width="46.1806" height="46.1806" rx="23.0903" stroke="#235041" stroke-width="1.31944"/>
<path d="M25.5608 12.9357C26.3632 12.9326 27.1655 12.9407 27.9677 12.9599L28.181 12.9676C28.4273 12.9764 28.6703 12.9874 28.9639 13.0006C30.1338 13.0555 30.932 13.2403 31.6325 13.5118C32.3581 13.7911 32.9695 14.1694 33.5808 14.7807C34.1398 15.33 34.5724 15.9945 34.8486 16.728C35.1202 17.4284 35.3049 18.2278 35.3599 19.3977C35.3731 19.6901 35.3841 19.9342 35.3929 20.1805L35.3995 20.3938C35.419 21.1956 35.4274 21.9976 35.4248 22.7996L35.4259 23.6199V25.0603C35.4286 25.8626 35.4201 26.665 35.4006 27.4672L35.394 27.6805C35.3852 27.9268 35.3742 28.1698 35.361 28.4633C35.306 29.6332 35.1191 30.4315 34.8486 31.1319C34.5733 31.8661 34.1406 32.5312 33.5808 33.0803C33.031 33.6392 32.3662 34.0718 31.6325 34.3481C30.932 34.6196 30.1338 34.8044 28.9639 34.8593C28.6703 34.8725 28.4273 34.8835 28.181 34.8923L27.9677 34.8989C27.1656 34.9185 26.3632 34.9269 25.5608 34.9242L24.7406 34.9253H23.3013C22.4989 34.928 21.6965 34.9196 20.8944 34.9L20.6811 34.8934C20.42 34.884 20.1591 34.873 19.8982 34.8604C18.7283 34.8055 17.93 34.6185 17.2285 34.3481C16.4948 34.0725 15.8302 33.6398 15.2812 33.0803C14.7216 32.5308 14.2886 31.8659 14.0124 31.1319C13.7408 30.4315 13.5561 29.6332 13.5011 28.4633C13.4888 28.2024 13.4778 27.9415 13.4681 27.6805L13.4626 27.4672C13.4423 26.665 13.4332 25.8627 13.4351 25.0603V22.7996C13.432 21.9976 13.4401 21.1956 13.4593 20.3938L13.467 20.1805C13.4758 19.9342 13.4868 19.6901 13.5 19.3977C13.555 18.2267 13.7397 17.4295 14.0113 16.728C14.2877 15.9942 14.7215 15.3299 15.2823 14.7818C15.8309 14.2219 16.4951 13.7885 17.2285 13.5118C17.93 13.2403 18.7272 13.0555 19.8982 13.0006L20.6811 12.9676L20.8944 12.9621C21.6961 12.9418 22.4981 12.9326 23.3002 12.9346L25.5608 12.9357ZM24.4305 18.4334C23.702 18.4231 22.9788 18.5576 22.3029 18.8293C21.6269 19.1009 21.0116 19.5042 20.4929 20.0157C19.9741 20.5271 19.5622 21.1366 19.281 21.8087C18.9998 22.4807 18.8551 23.202 18.8551 23.9305C18.8551 24.659 18.9998 25.3803 19.281 26.0523C19.5622 26.7244 19.9741 27.3339 20.4929 27.8453C21.0116 28.3568 21.6269 28.7601 22.3029 29.0317C22.9788 29.3034 23.702 29.4379 24.4305 29.4276C25.8886 29.4276 27.2869 28.8484 28.3179 27.8174C29.3489 26.7864 29.9282 25.388 29.9282 23.93C29.9282 22.4719 29.3489 21.0735 28.3179 20.0425C27.2869 19.0115 25.8886 18.4334 24.4305 18.4334ZM24.4305 20.6324C24.8687 20.6244 25.304 20.7037 25.7112 20.8658C26.1184 21.0279 26.4892 21.2694 26.8019 21.5764C27.1147 21.8834 27.3631 22.2497 27.5328 22.6538C27.7024 23.0579 27.7898 23.4917 27.7899 23.9299C27.7899 24.3682 27.7027 24.8021 27.5332 25.2062C27.3637 25.6103 27.1154 25.9767 26.8027 26.2838C26.4901 26.5909 26.1194 26.8326 25.7122 26.9948C25.3051 27.157 24.8698 27.2365 24.4316 27.2286C23.5567 27.2286 22.7177 26.881 22.0991 26.2624C21.4805 25.6438 21.133 24.8048 21.133 23.93C21.133 23.0551 21.4805 22.2161 22.0991 21.5975C22.7177 20.9789 23.5567 20.6313 24.4316 20.6313L24.4305 20.6324ZM30.2031 16.7841C29.8483 16.7983 29.5129 16.9492 29.2669 17.2051C29.021 17.4611 28.8836 17.8024 28.8836 18.1574C28.8836 18.5124 29.021 18.8536 29.2669 19.1096C29.5129 19.3656 29.8483 19.5165 30.2031 19.5307C30.5676 19.5307 30.9172 19.3859 31.1749 19.1281C31.4327 18.8704 31.5775 18.5208 31.5775 18.1563C31.5775 17.7918 31.4327 17.4422 31.1749 17.1844C30.9172 16.9267 30.5676 16.7819 30.2031 16.7819V16.7841Z" fill="#235041"/>
</svg>
