<svg width="147" height="45" viewBox="0 0 147 45" fill="none" xmlns="http://www.w3.org/2000/svg">
<g id="logo horizontal">
<path id="Union" fill-rule="evenodd" clip-rule="evenodd" d="M30.6326 0.865723H29.1792L26.8873 3.3672H28.3407L30.6326 0.865723ZM139.929 7.57409L143.395 22.4711H136.491L139.915 7.57409H139.929ZM145.644 32.505H147L140.488 3.9826H139.426L135.108 22.4711V22.5969L132.858 32.505H134.213L136.156 23.7847H143.688L145.63 32.505H145.644ZM122.404 3.94067H121.049L127.785 32.463H128.805L135.541 3.94067H134.143L128.302 29.0812L122.418 3.94067H122.404ZM109.156 11.515C109.156 7.28062 110.68 5.29622 113.894 5.29622C117.108 5.29622 118.631 7.15485 118.631 11.515V24.9307C118.631 29.3327 116.982 31.1913 113.894 31.1913C110.805 31.1913 109.156 29.2069 109.156 24.9307V11.515ZM107.843 24.9307C107.843 28.1029 108.653 29.9196 109.827 31.0656C111.015 32.2115 112.538 32.505 113.894 32.505C115.249 32.505 116.815 32.2115 118.002 31.0656C119.19 29.9196 119.987 28.1029 119.987 24.9307V11.515C119.987 6.60984 117.961 3.9826 113.894 3.9826C109.827 3.9826 107.843 6.65176 107.843 11.515V24.9307ZM98.368 32.505L103.273 9.82402V32.505H104.629V3.9826H103.189L97.8509 28.1449L92.4707 3.9826H91.0732V32.505H92.3868V9.82402L97.3339 32.505H98.354H98.368ZM72.7943 7.57409L76.26 22.4711H69.3565L72.7803 7.57409H72.7943ZM78.5099 32.505H79.8655L73.3533 3.9826H72.2912L67.973 22.4711V22.5969L65.7231 32.505H67.0786L69.0211 23.7847H76.5535L78.496 32.505H78.5099ZM51.0776 24.9307C51.0776 28.1029 51.8881 29.9196 53.062 31.0656C54.2498 32.2115 55.7731 32.505 57.1705 32.505C58.568 32.505 60.0493 32.2115 61.2372 31.0656C62.425 29.9196 63.2216 28.1029 63.2216 24.9307V24.2599H61.8661V24.9307C61.8661 27.0828 61.4887 28.6619 60.6782 29.71C59.8677 30.6882 58.6938 31.1913 57.1705 31.1913C53.9983 31.1913 52.4331 29.2908 52.4331 24.9307V11.515C52.4331 7.15485 54.0821 5.29622 57.1705 5.29622C60.259 5.29622 61.8661 7.15485 61.8661 11.515V12.1857H63.2216V11.515C63.2216 8.42655 62.4111 6.48407 61.2372 5.38007C60.0493 4.27606 58.5261 3.9826 57.1705 3.9826C55.815 3.9826 54.2498 4.27606 53.062 5.38007C51.8741 6.48407 51.0776 8.42655 51.0776 11.515V24.9307ZM47.9892 3.9826H46.6755V32.505H47.9892V3.9826ZM43.5871 32.505V3.9826H42.2316V28.3964L32.4074 3.9826H31.2614V32.505H32.617V8.07718L42.4831 32.505H43.5871ZM28.1451 3.9826H26.8314V32.505H28.1451V3.9826ZM24.4697 31.1913H15.7495V3.9826H14.394V32.505H24.4697V31.1913ZM0 24.9307C0 28.1029 0.810533 29.9196 1.98441 31.0656C3.17226 32.2115 4.6955 32.505 6.09297 32.505C7.49045 32.505 8.97176 32.2115 10.1596 31.0656C11.3475 29.9196 12.144 28.1029 12.144 24.9307V24.2599H10.7885V24.9307C10.7885 27.0828 10.4112 28.6619 9.60063 29.71C8.79009 30.6882 7.61622 31.1913 6.09297 31.1913C2.92072 31.1913 1.35555 29.2908 1.35555 24.9307V11.515C1.35555 7.15485 3.00456 5.29622 6.09297 5.29622C9.18139 5.29622 10.7885 7.15485 10.7885 11.515V12.1857H12.144V11.515C12.144 8.42655 11.3335 6.48407 10.1596 5.38007C8.97176 4.27606 7.44852 3.9826 6.09297 3.9826C4.73743 3.9826 3.17226 4.27606 1.98441 5.38007C0.796558 6.48407 0 8.42655 0 11.515V24.9307ZM35.6495 33.4419H111.337V44.2723H35.6495V33.4419Z" fill="#235041"/>
<path id="Vector nome" fill-rule="evenodd" clip-rule="evenodd" d="M107.689 39.2125V38.9749L107.046 39.0588C106.697 39.1007 106.515 39.2684 106.515 39.5339C106.515 39.6597 106.557 39.7575 106.641 39.8414C106.739 39.9252 106.851 39.9671 106.99 39.9671C107.2 39.9671 107.354 39.8973 107.494 39.7575C107.619 39.6178 107.689 39.4361 107.689 39.2265M108.709 40.6519H107.689V40.1488H107.675C107.438 40.5401 107.088 40.7357 106.627 40.7357C106.292 40.7357 106.012 40.6379 105.831 40.4423C105.635 40.2466 105.537 39.9951 105.537 39.6737C105.537 38.9889 105.942 38.5976 106.739 38.4998L107.689 38.374C107.689 37.9827 107.48 37.8011 107.06 37.8011C106.641 37.8011 106.25 37.9268 105.872 38.1784V37.3678C106.026 37.284 106.236 37.2141 106.487 37.1582C106.753 37.1023 106.99 37.0744 107.2 37.0744C108.206 37.0744 108.695 37.5775 108.695 38.5697V40.6659L108.709 40.6519ZM105.09 40.5261C104.838 40.6659 104.489 40.7357 104.028 40.7357C103.483 40.7357 103.05 40.5681 102.728 40.2466C102.393 39.9252 102.225 39.506 102.225 38.9889C102.225 38.388 102.407 37.9268 102.77 37.5775C103.133 37.2281 103.609 37.0604 104.196 37.0604C104.615 37.0604 104.908 37.1163 105.09 37.2281V38.1504C104.866 37.9827 104.615 37.8989 104.335 37.8989C104.028 37.8989 103.776 37.9967 103.595 38.1784C103.413 38.3601 103.315 38.6116 103.315 38.933C103.315 39.2544 103.399 39.492 103.581 39.6597C103.762 39.8414 104 39.9252 104.293 39.9252C104.573 39.9252 104.824 39.8414 105.09 39.6737V40.5401V40.5261ZM101.233 39.4641C101.233 39.6178 101.261 39.7296 101.345 39.8134C101.415 39.8833 101.512 39.9252 101.624 39.9252C101.694 39.9252 101.75 39.9252 101.806 39.8973C101.862 39.8973 101.932 39.8693 101.988 39.8693V40.624C101.848 40.6519 101.722 40.6938 101.568 40.7078C101.415 40.7357 101.275 40.7497 101.107 40.7497C100.967 40.7497 100.828 40.7218 100.716 40.6799C100.604 40.624 100.492 40.5541 100.408 40.4702C100.338 40.3724 100.255 40.2606 100.213 40.1348C100.157 40.0091 100.143 39.8553 100.143 39.7016V37.1443H101.219V39.4641H101.233ZM100.716 36.5992C100.534 36.5992 100.38 36.5433 100.269 36.4315C100.157 36.3197 100.087 36.18 100.087 36.0263C100.087 35.8726 100.143 35.7328 100.269 35.621C100.38 35.5092 100.534 35.4673 100.716 35.4673C100.897 35.4673 101.051 35.5092 101.163 35.621C101.275 35.7328 101.345 35.8586 101.345 36.0263C101.345 36.194 101.275 36.3197 101.163 36.4315C101.051 36.5433 100.897 36.5992 100.716 36.5992ZM99.5839 40.61C99.4162 40.6938 99.1786 40.7357 98.8572 40.7357C98.1025 40.7357 97.7112 40.3445 97.7112 39.5479V37.9408H97.1383V37.1443H97.7112V36.3896L98.7873 36.0822V37.1443H99.5699V37.9408H98.7873V39.3523C98.7873 39.7156 98.941 39.8973 99.2205 39.8973C99.3323 39.8973 99.4581 39.8553 99.5699 39.7994V40.596L99.5839 40.61ZM96.2858 35.4813L95.2098 36.5853H94.4272L95.3216 35.4813H96.2858ZM95.5871 39.2265V38.9889L94.9443 39.0728C94.5949 39.1147 94.4132 39.2824 94.4132 39.5479C94.4132 39.6737 94.4551 39.7715 94.539 39.8553C94.6368 39.9392 94.7486 39.9811 94.8884 39.9811C95.098 39.9811 95.2517 39.9112 95.3914 39.7715C95.5172 39.6317 95.5871 39.4501 95.5871 39.2405V39.2265ZM96.6072 40.6519H95.5871V40.1488H95.5731C95.3355 40.5401 94.9862 40.7357 94.525 40.7357C94.1896 40.7357 93.9101 40.6379 93.7285 40.4423C93.5328 40.2466 93.435 39.9951 93.435 39.6737C93.435 38.9889 93.8403 38.5976 94.6368 38.4998L95.5871 38.374C95.5871 37.9827 95.3775 37.8011 94.9582 37.8011C94.539 37.8011 94.1477 37.9268 93.7704 38.1784V37.3678C93.9241 37.284 94.1337 37.2141 94.3853 37.1582C94.6508 37.1023 94.8884 37.0744 95.098 37.0744C96.1042 37.0744 96.5933 37.5775 96.5933 38.5697V40.6659L96.6072 40.6519ZM93.1834 38.1225C93.0577 38.0526 92.9039 38.0107 92.7223 38.0107C92.4847 38.0107 92.303 38.0945 92.1773 38.2762C92.0375 38.4439 91.9676 38.6815 91.9676 38.9749V40.6519H90.8916V37.1443H91.9676V37.8011H91.9816C92.1633 37.3259 92.4707 37.0884 92.9039 37.0884C93.0157 37.0884 93.1136 37.1023 93.1695 37.1303V38.1225H93.1834ZM87.6215 38.8072V39.0867C87.6215 39.3243 87.6914 39.52 87.8172 39.6737C87.9429 39.8274 88.1106 39.9112 88.3202 39.9112C88.5718 39.9112 88.7535 39.8134 88.8932 39.6178C89.0329 39.4221 89.1028 39.1566 89.1028 38.8072C89.1028 38.1924 88.8653 37.8849 88.3761 37.8849C88.1525 37.8849 87.9709 37.9688 87.8311 38.1365C87.6914 38.3042 87.6215 38.5277 87.6215 38.8072ZM87.6495 40.2466H87.6355V42.259H86.5594V37.1443H87.6355V37.6753H87.6495C87.915 37.27 88.2923 37.0604 88.7814 37.0604C89.2426 37.0604 89.5919 37.2141 89.8295 37.5216C90.081 37.843 90.2068 38.2622 90.2068 38.7933C90.2068 39.3802 90.0531 39.8414 89.7736 40.1907C89.4801 40.5541 89.1028 40.7218 88.6277 40.7218C88.2084 40.7218 87.887 40.5541 87.6634 40.2327L87.6495 40.2466ZM83.7785 40.6519H82.7024V38.6535C82.7024 38.1365 82.5068 37.8849 82.1434 37.8849C81.9617 37.8849 81.822 37.9548 81.7102 38.1225C81.5984 38.2762 81.5425 38.4718 81.5425 38.6954V40.6519H80.4665V38.6395C80.4665 38.1365 80.2848 37.8989 79.9075 37.8989C79.7258 37.8989 79.5721 37.9688 79.4603 38.1225C79.3485 38.2762 79.2926 38.4718 79.2926 38.7234V40.6659H78.2165V37.1582H79.2926V37.7032H79.3066C79.4183 37.5076 79.586 37.3678 79.7817 37.2421C79.9913 37.1163 80.2149 37.0604 80.4525 37.0604C80.9556 37.0604 81.291 37.284 81.4726 37.7172C81.7382 37.284 82.1294 37.0604 82.6465 37.0604C83.4151 37.0604 83.7924 37.5355 83.7924 38.4718V40.6519H83.7785ZM76.5675 38.5417C76.5675 38.0386 76.3579 37.7871 75.9526 37.7871C75.7849 37.7871 75.6312 37.857 75.5054 37.9967C75.3797 38.1504 75.2958 38.3321 75.2679 38.5417H76.5535H76.5675ZM77.5737 39.2125H75.2818C75.3238 39.7156 75.6452 39.9811 76.2461 39.9811C76.6374 39.9811 76.9728 39.8973 77.2662 39.7016V40.4842C76.9448 40.6659 76.5256 40.7497 76.0085 40.7497C75.4356 40.7497 75.0023 40.596 74.6949 40.2746C74.3875 39.9532 74.2198 39.5199 74.2198 38.961C74.2198 38.402 74.3875 37.9129 74.7368 37.5775C75.0722 37.2421 75.4915 37.0744 75.9806 37.0744C76.4697 37.0744 76.8889 37.2281 77.1684 37.5355C77.4479 37.843 77.5877 38.2483 77.5877 38.7653V39.2265L77.5737 39.2125ZM70.6283 39.2405V39.0029L69.9854 39.0867C69.6361 39.1287 69.4544 39.2964 69.4544 39.5619C69.4544 39.6876 69.4963 39.7855 69.5802 39.8693C69.678 39.9532 69.7898 39.9951 69.9295 39.9951C70.1391 39.9951 70.2929 39.9252 70.4326 39.7855C70.5584 39.6457 70.6283 39.4641 70.6283 39.2544V39.2405ZM71.6484 40.6659H70.6283V40.1628H70.6143C70.3767 40.5541 70.0273 40.7497 69.5662 40.7497C69.2308 40.7497 68.9513 40.6519 68.7696 40.4563C68.574 40.2606 68.4761 40.0091 68.4761 39.6876C68.4761 39.0029 68.8814 38.6116 69.678 38.5138L70.6283 38.388C70.6283 37.9967 70.4186 37.815 69.9994 37.815C69.5802 37.815 69.1889 37.9408 68.8115 38.1924V37.3818C68.9653 37.298 69.1749 37.2281 69.4264 37.1722C69.692 37.1163 69.9295 37.0884 70.1391 37.0884C71.1453 37.0884 71.6344 37.5914 71.6344 38.5836V40.6799L71.6484 40.6659ZM67.5259 39.478C67.5259 39.6317 67.5678 39.7435 67.6377 39.8274C67.7075 39.8973 67.8054 39.9392 67.9172 39.9392C67.987 39.9392 68.0429 39.9392 68.0988 39.9112C68.1687 39.9112 68.2246 39.8833 68.2805 39.8833V40.6379C68.1408 40.6659 68.015 40.7078 67.8613 40.7218C67.7075 40.7497 67.5678 40.7637 67.4001 40.7637C67.2603 40.7637 67.1206 40.7357 67.0088 40.6938C66.897 40.6379 66.7852 40.5681 66.7014 40.4842C66.6175 40.3864 66.5476 40.2746 66.5057 40.1488C66.4498 40.023 66.4358 39.8693 66.4358 39.7156V37.1582H67.5119V39.478H67.5259ZM67.0088 36.6132C66.8271 36.6132 66.6734 36.5573 66.5616 36.4455C66.4358 36.3337 66.3799 36.194 66.3799 36.0403C66.3799 35.8865 66.4358 35.7468 66.5616 35.635C66.6734 35.5232 66.8271 35.4813 67.0088 35.4813C67.1905 35.4813 67.3442 35.5232 67.456 35.635C67.5678 35.7468 67.6377 35.8726 67.6377 36.0403C67.6377 36.2079 67.5678 36.3337 67.456 36.4455C67.3442 36.5573 67.1905 36.6132 67.0088 36.6132ZM64.5073 38.9889V38.7094C64.5073 38.4858 64.4375 38.3042 64.3117 38.1365C64.1719 37.9827 64.0042 37.8989 63.7946 37.8989C63.5571 37.8989 63.3614 37.9967 63.2217 38.1784C63.0819 38.374 63.012 38.6256 63.012 38.9749C63.012 39.2684 63.0819 39.492 63.2077 39.6737C63.3335 39.8414 63.5151 39.9252 63.7387 39.9252C63.9623 39.9252 64.144 39.8414 64.2837 39.6597C64.4235 39.492 64.4934 39.2544 64.4934 38.9749L64.5073 38.9889ZM65.5694 40.2746C65.5694 40.9314 65.3738 41.4345 65.0104 41.7839C64.6331 42.1332 64.0881 42.3149 63.3754 42.3149C62.9002 42.3149 62.5369 42.245 62.2574 42.1053V41.1969C62.6207 41.4065 62.9841 41.5183 63.3474 41.5183C63.7108 41.5183 63.9903 41.4205 64.1999 41.2249C64.4095 41.0292 64.5073 40.7637 64.5073 40.4423V40.1628C64.2558 40.5541 63.8924 40.7497 63.4173 40.7497C62.9701 40.7497 62.6207 40.596 62.3552 40.2746C62.0897 39.9532 61.9639 39.5339 61.9639 39.0029C61.9639 38.402 62.1177 37.9408 62.4111 37.5914C62.7046 37.2421 63.0819 37.0744 63.5571 37.0744C63.9903 37.0744 64.3117 37.2421 64.5213 37.5635V37.1582H65.5974V40.2606L65.5694 40.2746ZM59.5463 37.9129C59.2948 37.9129 59.0851 37.9967 58.9454 38.1784C58.8056 38.3601 58.7358 38.6116 58.7358 38.933C58.7358 39.6038 59.0153 39.9392 59.5463 39.9392C60.0773 39.9392 60.3289 39.5898 60.3289 38.9051C60.3289 38.2483 60.0634 37.9268 59.5463 37.9268V37.9129ZM59.5184 40.7637C58.9314 40.7637 58.4703 40.596 58.1488 40.2746C57.8134 39.9392 57.6457 39.506 57.6457 38.947C57.6457 38.388 57.8274 37.9129 58.1628 37.5914C58.5122 37.256 58.9873 37.1023 59.5743 37.1023C60.1612 37.1023 60.6084 37.27 60.9438 37.5914C61.2792 37.9129 61.4469 38.3461 61.4469 38.8911C61.4469 39.478 61.2792 39.9392 60.9298 40.2746C60.5944 40.61 60.1193 40.7777 59.5323 40.7777L59.5184 40.7637ZM56.6396 39.492C56.6396 39.6457 56.6675 39.7575 56.7514 39.8414C56.8212 39.9112 56.9191 39.9532 57.0309 39.9532C57.1007 39.9532 57.1427 39.9532 57.2125 39.9252C57.2824 39.9252 57.3383 39.8973 57.3942 39.8973V40.6519C57.2545 40.6799 57.1287 40.7218 56.975 40.7357C56.8212 40.7637 56.6815 40.7777 56.5138 40.7777C56.374 40.7777 56.2343 40.7497 56.1225 40.7078C56.0107 40.6519 55.8989 40.582 55.8151 40.4982C55.7452 40.4004 55.6613 40.2886 55.6194 40.1628C55.5635 40.037 55.5495 39.8833 55.5495 39.7296V35.4952H56.6256V39.492H56.6396ZM53.0061 37.9268C52.7546 37.9268 52.545 38.0107 52.4052 38.1924C52.2655 38.374 52.1956 38.6256 52.1956 38.947C52.1956 39.6178 52.4751 39.9532 53.0061 39.9532C53.5372 39.9532 53.7887 39.6038 53.7887 38.919C53.7887 38.2622 53.5232 37.9408 53.0061 37.9408V37.9268ZM52.9782 40.7777C52.3913 40.7777 51.9301 40.61 51.6087 40.2886C51.2733 39.9532 51.1056 39.5199 51.1056 38.961C51.1056 38.402 51.2873 37.9268 51.6226 37.6054C51.972 37.27 52.4472 37.1163 53.0341 37.1163C53.621 37.1163 54.0682 37.284 54.4036 37.6054C54.739 37.9268 54.9067 38.3601 54.9067 38.9051C54.9067 39.492 54.739 39.9532 54.3896 40.2886C54.0542 40.624 53.5791 40.7916 52.9922 40.7916L52.9782 40.7777ZM50.6025 40.5681C50.3509 40.7078 50.0016 40.7777 49.5404 40.7777C48.9954 40.7777 48.5622 40.61 48.2408 40.2886C47.9054 39.9671 47.7377 39.5479 47.7377 39.0308C47.7377 38.4299 47.9193 37.9688 48.2827 37.6194C48.646 37.27 49.1212 37.1023 49.7081 37.1023C50.1274 37.1023 50.4208 37.1582 50.6025 37.27V38.1924C50.3789 38.0247 50.1274 37.9408 49.8479 37.9408C49.5404 37.9408 49.2889 38.0386 49.1072 38.2203C48.9255 38.402 48.8277 38.6535 48.8277 38.9749C48.8277 39.2964 48.9116 39.5339 49.0932 39.7016C49.2749 39.8833 49.5125 39.9671 49.8059 39.9671C50.0854 39.9671 50.337 39.8833 50.6025 39.7156V40.582V40.5681ZM46.7455 39.506C46.7455 39.6597 46.7874 39.7715 46.8573 39.8553C46.9271 39.9252 47.025 39.9671 47.1368 39.9671C47.2066 39.9671 47.2625 39.9671 47.3184 39.9392C47.3883 39.9392 47.4442 39.9112 47.5001 39.9112V40.6659C47.3604 40.6938 47.2346 40.7358 47.0809 40.7497C46.9271 40.7777 46.7874 40.7916 46.6197 40.7916C46.48 40.7916 46.3402 40.7637 46.2284 40.7218C46.1166 40.6659 46.0048 40.596 45.921 40.5122C45.8371 40.4143 45.7672 40.3025 45.7253 40.1768C45.6834 40.051 45.6554 39.8973 45.6554 39.7435V37.1862H46.7315V39.506H46.7455ZM46.2284 36.6412C46.0467 36.6412 45.893 36.5853 45.7812 36.4735C45.6554 36.3617 45.5995 36.2219 45.5995 36.0682C45.5995 35.9145 45.6554 35.7747 45.7812 35.6629C45.893 35.5511 46.0467 35.5092 46.2284 35.5092C46.4101 35.5092 46.5638 35.5511 46.6756 35.6629C46.7874 35.7747 46.8573 35.9005 46.8573 36.0682C46.8573 36.2359 46.7874 36.3617 46.6756 36.4735C46.5638 36.5853 46.4101 36.6412 46.2284 36.6412ZM42.3854 40.61V39.7296C42.567 39.8414 42.7487 39.9112 42.9164 39.9671C43.0981 40.023 43.2658 40.051 43.4195 40.051C43.6151 40.051 43.7689 40.023 43.8667 39.9671C43.9785 39.9112 44.0344 39.8274 44.0344 39.7296C44.0344 39.6597 44.0204 39.6038 43.9505 39.5479C43.9086 39.506 43.8387 39.4641 43.7549 39.4221C43.671 39.3802 43.5872 39.3523 43.4894 39.3243C43.3915 39.2964 43.3077 39.2684 43.2099 39.2265C43.0701 39.1706 42.9444 39.1147 42.8465 39.0588C42.7347 38.9889 42.6509 38.919 42.581 38.8492C42.5111 38.7653 42.4552 38.6675 42.4133 38.5697C42.3854 38.4579 42.3574 38.3321 42.3574 38.1924C42.3574 37.9967 42.3993 37.829 42.4972 37.6893C42.581 37.5355 42.6928 37.4237 42.8326 37.3399C42.9863 37.2421 43.14 37.1862 43.3217 37.1443C43.5033 37.1023 43.699 37.0744 43.8946 37.0744C44.0484 37.0744 44.216 37.0744 44.3698 37.1163C44.5375 37.1303 44.6912 37.1722 44.8449 37.2281V38.0666C44.7052 37.9827 44.5514 37.9268 44.3977 37.8849C44.244 37.857 44.0903 37.829 43.9366 37.829C43.8667 37.829 43.7968 37.829 43.7409 37.829C43.671 37.843 43.6151 37.8709 43.5732 37.8849C43.5173 37.9129 43.4894 37.9408 43.4614 37.9827C43.4335 38.0247 43.4195 38.0666 43.4195 38.1225C43.4195 38.1924 43.4474 38.2483 43.4894 38.2902C43.5313 38.3321 43.5872 38.374 43.6571 38.4159C43.7269 38.4439 43.7968 38.4858 43.8807 38.4998C43.9645 38.5277 44.0484 38.5557 44.1322 38.5836C44.2719 38.6395 44.4117 38.6954 44.5235 38.7513C44.6353 38.8072 44.7331 38.8771 44.817 38.961C44.9008 39.0448 44.9707 39.1426 45.0126 39.2405C45.0545 39.3523 45.0825 39.478 45.0825 39.6318C45.0825 39.8414 45.0406 40.023 44.9427 40.1628C44.8449 40.3165 44.7331 40.4283 44.5794 40.5261C44.4257 40.624 44.258 40.6938 44.0623 40.7357C43.8667 40.7777 43.6571 40.8056 43.4474 40.8056C43.0561 40.8056 42.7068 40.7497 42.3714 40.624L42.3854 40.61ZM39.3389 38.8631V39.1426C39.3389 39.3802 39.4088 39.5759 39.5345 39.7296C39.6603 39.8833 39.828 39.9671 40.0376 39.9671C40.2892 39.9671 40.4708 39.8693 40.6106 39.6737C40.7503 39.478 40.8202 39.2125 40.8202 38.8631C40.8202 38.2483 40.5826 37.9408 40.0935 37.9408C39.8699 37.9408 39.6882 38.0247 39.5485 38.1924C39.4087 38.36 39.3389 38.5836 39.3389 38.8631ZM39.3668 40.3025V42.3149H38.2908V37.2002H39.3668V37.7312C39.6323 37.3259 40.0097 37.1163 40.4988 37.1163C40.9599 37.1163 41.3093 37.27 41.5469 37.5775C41.7984 37.8989 41.9242 38.3181 41.9242 38.8492C41.9242 39.4361 41.7705 39.8973 41.491 40.2466C41.1975 40.61 40.8202 40.7777 40.3451 40.7777C39.9258 40.7777 39.6044 40.61 39.3808 40.2886L39.3668 40.3025Z" fill="white"/>
</g>
</svg>