<svg width="49" height="48" viewBox="0 0 49 48" fill="none" xmlns="http://www.w3.org/2000/svg">
<rect x="1.63195" y="0.840386" width="46.1806" height="46.1806" rx="23.0903" stroke="#235041" stroke-width="1.31944"/>
<g clip-path="url(#clip0_17_1616)">
<path d="M36.5972 17.1257V21.6741C35.7715 21.5964 34.6986 21.4159 33.5117 20.9973C31.9619 20.4505 30.8083 19.7029 30.0527 19.124V28.3169L30.0334 28.2882C30.0457 28.4704 30.0527 28.6561 30.0527 28.8434C30.0527 33.4086 26.194 37.125 21.45 37.125C16.7059 37.125 12.8472 33.4086 12.8472 28.8434C12.8472 24.2782 16.7059 20.5602 21.45 20.5602C21.9145 20.5602 22.3704 20.5956 22.8157 20.6648V25.1474C22.3879 25.0005 21.9286 24.9212 21.45 24.9212C19.2042 24.9212 17.3756 26.6798 17.3756 28.8434C17.3756 31.007 19.2042 32.7656 21.45 32.7656C23.6958 32.7656 25.5243 31.0054 25.5243 28.8434C25.5243 28.7624 25.5225 28.6814 25.5173 28.6004V10.7361H30.2385C30.2561 11.1209 30.2718 11.5091 30.2894 11.8939C30.3209 12.6516 30.6014 13.3791 31.0906 13.9748C31.6638 14.6752 32.5106 15.4886 33.6993 16.1384C34.8125 16.7443 35.8574 17.0059 36.5972 17.1291V17.1257Z" fill="#235041"/>
</g>
<defs>
<clipPath id="clip0_17_1616">
<rect width="26.3889" height="26.3889" fill="white" transform="translate(11.5278 10.7361)"/>
</clipPath>
</defs>
</svg>
